<?xml version="1.0" standalone="no"?>
<!DOCTYPE svg PUBLIC "-//W3C//DTD SVG 20010904//EN"
 "http://www.w3.org/TR/2001/REC-SVG-20010904/DTD/svg10.dtd">
<svg version="1.0" xmlns="http://www.w3.org/2000/svg"
 width="1500.000000pt" height="1500.000000pt" viewBox="0 0 1500.000000 1500.000000"
 preserveAspectRatio="xMidYMid meet">
<metadata>
Created by potrace 1.14, written by Peter Selinger 2001-2017
</metadata>
<g transform="translate(0.000000,1500.000000) scale(0.100000,-0.100000)"
fill="#000000" stroke="none">
<path d="M7337 11540 c-324 -40 -593 -263 -699 -580 -30 -90 -32 -103 -33
-250 0 -132 3 -166 23 -233 80 -279 293 -497 564 -581 l68 -21 -69 -205 c-275
-821 -562 -1312 -895 -1529 -114 -74 -214 -105 -346 -105 -123 -1 -207 21
-335 87 -242 126 -526 416 -785 801 l-53 80 24 15 c105 70 173 152 211 259 30
85 30 226 -1 313 -47 132 -151 241 -278 290 -87 33 -221 38 -311 10 -283 -86
-417 -400 -286 -669 84 -172 253 -270 449 -260 l72 3 -24 -135 c-122 -698
-364 -1122 -703 -1231 -93 -30 -250 -36 -360 -14 -288 58 -647 268 -1040 609
-155 135 -415 382 -498 475 l-73 81 25 33 c65 85 103 229 90 336 -24 193 -143
340 -323 401 -75 25 -213 27 -292 4 -343 -100 -450 -549 -190 -797 166 -158
412 -179 601 -52 l49 33 22 -36 c42 -70 365 -717 438 -877 438 -959 691 -1772
785 -2525 45 -358 49 -866 11 -1147 l-6 -43 4346 0 4345 0 -5 23 c-25 112 -39
547 -26 777 52 873 288 1734 774 2815 95 213 487 997 496 993 3 -2 40 -20 82
-41 388 -196 809 171 668 582 -66 192 -238 311 -449 311 -243 0 -432 -159
-471 -398 -21 -127 21 -284 99 -374 l32 -35 -223 -219 c-502 -495 -891 -774
-1244 -892 -304 -102 -558 -54 -759 143 -214 210 -351 558 -458 1163 l-5 32
67 0 c187 0 346 98 426 262 131 267 -5 584 -287 670 -89 27 -224 22 -310 -11
-79 -31 -172 -104 -219 -171 -112 -163 -112 -387 0 -550 33 -47 115 -120 177
-156 17 -9 12 -19 -53 -115 -127 -186 -254 -341 -392 -479 -180 -180 -306
-270 -463 -330 -561 -217 -1056 315 -1482 1594 -41 123 -75 228 -75 233 0 6
19 19 42 29 217 97 393 312 459 559 25 95 30 285 10 380 -57 261 -238 488
-478 596 -127 58 -315 86 -456 69z m4043 -7045 l0 -115 -60 0 c-52 0 -7039
214 -7270 223 -47 1 1583 4 3623 5 l3707 2 0 -115z"/>
</g>
</svg>
